<svg xmlns="http://www.w3.org/2000/svg" viewBox="0 0 128 128" width="128" height="128">
  <defs>
    <linearGradient id="bg" x1="0" y1="0" x2="0" y2="1">
      <stop offset="0" stop-color="#1e293b"/>
      <stop offset="1" stop-color="#0f172a"/>
    </linearGradient>
  </defs>
  <rect width="128" height="128" rx="22" fill="url(#bg)"/>
  <g transform="translate(24 22)">
    <path d="M0 6 a6 6 0 0 1 6 -6 h48 l16 16 v60 a6 6 0 0 1 -6 6 h-58 a6 6 0 0 1 -6 -6 z"
          fill="#e2e8f0"/>
    <path d="M54 0 v10 a6 6 0 0 0 6 6 h10 z" fill="#94a3b8"/>
    <circle cx="14" cy="32" r="3.5" fill="#0ea5e9"/>
    <rect x="22" y="29" width="34" height="6" rx="1.5" fill="#cbd5e1"/>
    <circle cx="14" cy="46" r="3.5" fill="#0ea5e9"/>
    <rect x="22" y="43" width="28" height="6" rx="1.5" fill="#cbd5e1"/>
  </g>
  <g transform="translate(76 70)">
    <circle cx="22" cy="22" r="22" fill="#22c55e"/>
    <path d="M12 22 l7 7 13 -15"
          fill="none" stroke="#ffffff" stroke-width="4.5"
          stroke-linecap="round" stroke-linejoin="round"/>
  </g>
</svg>
